<svg width="121" height="78" viewBox="0 0 121 78" fill="none" xmlns="http://www.w3.org/2000/svg">
<path d="M34.0418 56.776C32.8151 56.776 31.7538 56.6053 30.8578 56.264C29.9725 55.9227 29.2898 55.4213 28.8098 54.76C28.3298 54.0987 28.0898 53.288 28.0898 52.328C28.0898 51.944 28.1271 51.5547 28.2018 51.16C28.2871 50.7653 28.4098 50.4027 28.5698 50.072C28.7298 49.7413 28.9325 49.4747 29.1778 49.272C29.4231 49.0587 29.7111 48.952 30.0418 48.952C30.3085 48.952 30.5271 49.0107 30.6978 49.128C30.8791 49.2453 31.0178 49.3787 31.1138 49.528C31.2098 49.6773 31.2578 49.8107 31.2578 49.928C30.9378 50.1627 30.6765 50.4507 30.4738 50.792C30.2711 51.1227 30.1698 51.6187 30.1698 52.28C30.1698 52.568 30.2071 52.872 30.2818 53.192C30.3565 53.5227 30.5218 53.8267 30.7778 54.104C31.0338 54.392 31.4178 54.6267 31.9298 54.808C32.4525 54.9893 33.1511 55.08 34.0258 55.08C34.7725 55.08 35.3911 55.0107 35.8818 54.872C36.3725 54.744 36.7565 54.568 37.0338 54.344C37.3218 54.1307 37.5245 53.8907 37.6418 53.624C37.7591 53.368 37.8178 53.112 37.8178 52.856L39.8978 52.696C39.8978 53.5813 39.6525 54.328 39.1618 54.936C38.6711 55.544 37.9831 56.0027 37.0978 56.312C36.2231 56.6213 35.2045 56.776 34.0418 56.776ZM37.5938 53C37.1138 53 36.7405 52.9253 36.4738 52.776C36.2178 52.6267 36.0365 52.44 35.9298 52.216C35.8338 51.9813 35.8018 51.736 35.8338 51.48C35.8658 51.2133 35.9351 50.968 36.0418 50.744C36.1591 50.8613 36.3511 50.984 36.6178 51.112C36.8845 51.24 37.2045 51.304 37.5778 51.304H41.8178V53H37.5938ZM41.8178 53V51.304C41.9351 51.304 42.0151 51.384 42.0578 51.544C42.1111 51.6933 42.1378 51.896 42.1378 52.152C42.1378 52.408 42.1111 52.616 42.0578 52.776C42.0151 52.9253 41.9351 53 41.8178 53ZM35.2898 59.896C35.0125 59.896 34.7671 59.7947 34.5538 59.592C34.3511 59.3893 34.2498 59.144 34.2498 58.856C34.2498 58.568 34.3511 58.3227 34.5538 58.12C34.7671 57.9173 35.0125 57.816 35.2898 57.816C35.5885 57.816 35.8338 57.9173 36.0258 58.12C36.2285 58.3227 36.3298 58.568 36.3298 58.856C36.3298 59.144 36.2285 59.3893 36.0258 59.592C35.8338 59.7947 35.5885 59.896 35.2898 59.896ZM32.6978 59.896C32.4205 59.896 32.1751 59.7947 31.9618 59.592C31.7591 59.3893 31.6578 59.144 31.6578 58.856C31.6578 58.568 31.7591 58.3227 31.9618 58.12C32.1751 57.9173 32.4205 57.816 32.6978 57.816C32.9858 57.816 33.2311 57.9173 33.4338 58.12C33.6365 58.3227 33.7378 58.568 33.7378 58.856C33.7378 59.144 33.6365 59.3893 33.4338 59.592C33.2311 59.7947 32.9858 59.896 32.6978 59.896ZM41.6504 53V51.304H42.4664C42.7117 51.304 42.9091 51.2347 43.0584 51.096C43.2184 50.9573 43.3357 50.7813 43.4104 50.568C43.4851 50.344 43.5224 50.1253 43.5224 49.912V46.376C43.5224 46.1307 43.5971 45.896 43.7464 45.672C43.8957 45.4373 44.1677 45.32 44.5624 45.32C44.9571 45.32 45.2291 45.4373 45.3784 45.672C45.5277 45.896 45.6024 46.1307 45.6024 46.376V49.912C45.6024 50.4987 45.4637 51.0267 45.1864 51.496C44.9197 51.9653 44.5517 52.3333 44.0824 52.6C43.6131 52.8667 43.0744 53 42.4664 53H41.6504ZM46.6584 53C46.0611 53 45.5224 52.8667 45.0424 52.6C44.5731 52.3333 44.1997 51.9653 43.9224 51.496C43.6557 51.0267 43.5224 50.4987 43.5224 49.912H45.6024C45.6024 50.1253 45.6397 50.344 45.7144 50.568C45.7891 50.7813 45.9064 50.9573 46.0664 51.096C46.2264 51.2347 46.4237 51.304 46.6584 51.304H47.4744V53H46.6584ZM47.4744 53V51.304C47.5917 51.304 47.6717 51.384 47.7144 51.544C47.7677 51.6933 47.7944 51.896 47.7944 52.152C47.7944 52.408 47.7677 52.616 47.7144 52.776C47.6717 52.9253 47.5917 53 47.4744 53ZM41.6504 53C41.5437 53 41.4637 52.9253 41.4104 52.776C41.3571 52.616 41.3304 52.408 41.3304 52.152C41.3304 51.896 41.3571 51.6933 41.4104 51.544C41.4637 51.384 41.5437 51.304 41.6504 51.304V53ZM44.5784 56.584C44.2477 56.584 43.9651 56.4667 43.7304 56.232C43.5064 56.008 43.3944 55.7413 43.3944 55.432C43.3944 55.112 43.5064 54.84 43.7304 54.616C43.9651 54.392 44.2477 54.28 44.5784 54.28C44.8877 54.28 45.1544 54.392 45.3784 54.616C45.6131 54.84 45.7304 55.112 45.7304 55.432C45.7304 55.7413 45.6131 56.008 45.3784 56.232C45.1544 56.4667 44.8877 56.584 44.5784 56.584ZM47.3135 53V51.304H48.1295C48.3749 51.304 48.5722 51.2347 48.7215 51.096C48.8815 50.9573 48.9989 50.7813 49.0735 50.568C49.1482 50.344 49.1855 50.1253 49.1855 49.912V47.256C49.1855 47.0107 49.2602 46.776 49.4095 46.552C49.5589 46.3173 49.8309 46.2 50.2255 46.2C50.6202 46.2 50.8922 46.3173 51.0415 46.552C51.1909 46.776 51.2655 47.0107 51.2655 47.256V49.912C51.2655 50.4987 51.1269 51.0267 50.8495 51.496C50.5829 51.9653 50.2149 52.3333 49.7455 52.6C49.2762 52.8667 48.7375 53 48.1295 53H47.3135ZM52.3215 53C51.7242 53 51.1855 52.8667 50.7055 52.6C50.2362 52.3333 49.8629 51.9653 49.5855 51.496C49.3189 51.0267 49.1855 50.4987 49.1855 49.912H51.2655C51.2655 50.1253 51.3029 50.3387 51.3775 50.552C51.4522 50.7653 51.5695 50.9467 51.7295 51.096C51.8895 51.2347 52.0869 51.304 52.3215 51.304H52.6735V53H52.3215ZM57.8255 53V51.304H58.4335C58.6789 51.304 58.8762 51.2347 59.0255 51.096C59.1855 50.9573 59.3029 50.7813 59.3775 50.568C59.4522 50.344 59.4895 50.1253 59.4895 49.912V46.376C59.4895 46.1307 59.5642 45.896 59.7135 45.672C59.8629 45.4373 60.1349 45.32 60.5295 45.32C60.9242 45.32 61.1962 45.4373 61.3455 45.672C61.4949 45.896 61.5695 46.1307 61.5695 46.376V49.912C61.5695 50.4987 61.4309 51.0267 61.1535 51.496C60.8869 51.9653 60.5189 52.3333 60.0495 52.6C59.5802 52.8667 59.0415 53 58.4335 53H57.8255ZM57.4735 53C56.8762 53 56.3375 52.8667 55.8575 52.6C55.3882 52.3333 55.0149 51.9653 54.7375 51.496C54.4709 51.0267 54.3375 50.4987 54.3375 49.912H56.4175C56.4175 50.136 56.4549 50.3547 56.5295 50.568C56.6042 50.7813 56.7215 50.9573 56.8815 51.096C57.0415 51.2347 57.2389 51.304 57.4735 51.304H57.8255V53H57.4735ZM52.6735 53V51.304H53.2815C53.5269 51.304 53.7242 51.2347 53.8735 51.096C54.0335 50.9573 54.1509 50.7813 54.2255 50.568C54.3002 50.344 54.3375 50.1253 54.3375 49.912V46.872C54.3375 46.6267 54.4122 46.392 54.5615 46.168C54.7109 45.9333 54.9829 45.816 55.3775 45.816C55.7722 45.816 56.0442 45.9333 56.1935 46.168C56.3429 46.392 56.4175 46.6267 56.4175 46.872V49.912C56.4175 50.4987 56.2789 51.0267 56.0015 51.496C55.7349 51.9653 55.3669 52.3333 54.8975 52.6C54.4282 52.8667 53.8895 53 53.2815 53H52.6735ZM62.6255 53C62.0282 53 61.4895 52.8667 61.0095 52.6C60.5402 52.3333 60.1669 51.9653 59.8895 51.496C59.6229 51.0267 59.4895 50.4987 59.4895 49.912H61.5695C61.5695 50.1253 61.6069 50.344 61.6815 50.568C61.7562 50.7813 61.8735 50.9573 62.0335 51.096C62.1935 51.2347 62.3909 51.304 62.6255 51.304H63.4415V53H62.6255ZM63.4415 53V51.304C63.5589 51.304 63.6389 51.384 63.6815 51.544C63.7349 51.6933 63.7615 51.896 63.7615 52.152C63.7615 52.408 63.7349 52.616 63.6815 52.776C63.6389 52.9253 63.5589 53 63.4415 53ZM47.3135 53C47.2069 53 47.1269 52.9253 47.0735 52.776C47.0202 52.616 46.9935 52.408 46.9935 52.152C46.9935 51.896 47.0202 51.6933 47.0735 51.544C47.1269 51.384 47.2069 51.304 47.3135 51.304V53ZM73.4335 53C72.8682 53 72.3615 52.8827 71.9135 52.648C71.4655 52.4133 71.0975 52.088 70.8095 51.672C70.5322 51.256 70.3669 50.7813 70.3135 50.248L72.3775 49.96C72.3882 50.28 72.4789 50.584 72.6495 50.872C72.8202 51.16 73.0815 51.304 73.4335 51.304H74.2495V53H73.4335ZM63.2735 53V51.304H69.5455C69.7482 51.304 69.9242 51.224 70.0735 51.064C70.2335 50.904 70.3135 50.6427 70.3135 50.28C70.3135 49.9067 70.2335 49.64 70.0735 49.48C69.9242 49.3093 69.7482 49.224 69.5455 49.224H67.0655C66.4042 49.224 65.8015 49.1067 65.2575 48.872C64.7135 48.6267 64.2762 48.296 63.9455 47.88C63.6255 47.4533 63.4655 46.9733 63.4655 46.44C63.4655 45.896 63.6255 45.416 63.9455 45C64.2762 44.5733 64.7135 44.2427 65.2575 44.008C65.8015 43.7627 66.4042 43.64 67.0655 43.64H70.2975C70.7669 43.64 71.1295 43.5707 71.3855 43.432C71.6415 43.2827 71.8335 43.1547 71.9615 43.048C71.9935 43.2507 71.9829 43.48 71.9295 43.736C71.8869 43.992 71.7962 44.2427 71.6575 44.488C71.5295 44.7333 71.3535 44.936 71.1295 45.096C70.9055 45.256 70.6282 45.336 70.2975 45.336H67.0655C66.6175 45.336 66.2495 45.4427 65.9615 45.656C65.6842 45.8587 65.5455 46.12 65.5455 46.44C65.5455 46.7493 65.6842 47.0107 65.9615 47.224C66.2495 47.4267 66.6175 47.528 67.0655 47.528H69.8655C70.3669 47.528 70.8042 47.6507 71.1775 47.896C71.5615 48.1307 71.8602 48.456 72.0735 48.872C72.2869 49.2773 72.3935 49.7467 72.3935 50.28C72.3935 50.8027 72.2869 51.272 72.0735 51.688C71.8602 52.0933 71.5615 52.4133 71.1775 52.648C70.8042 52.8827 70.3669 53 69.8655 53H63.2735ZM63.2735 53C63.1669 53 63.0869 52.9253 63.0335 52.776C62.9802 52.616 62.9535 52.408 62.9535 52.152C62.9535 51.896 62.9802 51.6933 63.0335 51.544C63.0869 51.384 63.1669 51.304 63.2735 51.304V53ZM74.2495 53V51.304C74.3669 51.304 74.4469 51.384 74.4895 51.544C74.5429 51.6933 74.5695 51.896 74.5695 52.152C74.5695 52.408 74.5429 52.616 74.4895 52.776C74.4469 52.9253 74.3669 53 74.2495 53ZM74.0773 53V51.304H76.5253V53H74.0773ZM76.5253 53V51.304C76.6426 51.304 76.7226 51.384 76.7653 51.544C76.8186 51.6933 76.8453 51.896 76.8453 52.152C76.8453 52.408 76.8186 52.616 76.7653 52.776C76.7226 52.9253 76.6426 53 76.5253 53ZM74.0773 53C73.9706 53 73.8906 52.9253 73.8373 52.776C73.784 52.616 73.7573 52.408 73.7573 52.152C73.7573 51.896 73.784 51.6933 73.8373 51.544C73.8906 51.384 73.9706 51.304 74.0773 51.304V53ZM76.3654 53V51.304H78.8134V53H76.3654ZM78.8134 53V51.304C78.9308 51.304 79.0108 51.384 79.0534 51.544C79.1068 51.6933 79.1334 51.896 79.1334 52.152C79.1334 52.408 79.1068 52.616 79.0534 52.776C79.0108 52.9253 78.9308 53 78.8134 53ZM76.3654 53C76.2588 53 76.1788 52.9253 76.1254 52.776C76.0721 52.616 76.0454 52.408 76.0454 52.152C76.0454 51.896 76.0721 51.6933 76.1254 51.544C76.1788 51.384 76.2588 51.304 76.3654 51.304V53ZM78.6535 53V51.304H81.1015V53H78.6535ZM81.1015 53V51.304C81.2189 51.304 81.2989 51.384 81.3415 51.544C81.3949 51.6933 81.4215 51.896 81.4215 52.152C81.4215 52.408 81.3949 52.616 81.3415 52.776C81.2989 52.9253 81.2189 53 81.1015 53ZM78.6535 53C78.5469 53 78.4669 52.9253 78.4135 52.776C78.3602 52.616 78.3335 52.408 78.3335 52.152C78.3335 51.896 78.3602 51.6933 78.4135 51.544C78.4669 51.384 78.5469 51.304 78.6535 51.304V53ZM80.9417 53V51.304H83.3897V53H80.9417ZM83.3897 53V51.304C83.507 51.304 83.587 51.384 83.6297 51.544C83.683 51.6933 83.7097 51.896 83.7097 52.152C83.7097 52.408 83.683 52.616 83.6297 52.776C83.587 52.9253 83.507 53 83.3897 53ZM80.9417 53C80.835 53 80.755 52.9253 80.7017 52.776C80.6483 52.616 80.6217 52.408 80.6217 52.152C80.6217 51.896 80.6483 51.6933 80.7017 51.544C80.755 51.384 80.835 51.304 80.9417 51.304V53ZM83.2298 53V51.304H85.6778V53H83.2298ZM85.6778 53V51.304C85.7951 51.304 85.8751 51.384 85.9178 51.544C85.9711 51.6933 85.9978 51.896 85.9978 52.152C85.9978 52.408 85.9711 52.616 85.9178 52.776C85.8751 52.9253 85.7951 53 85.6778 53ZM83.2298 53C83.1231 53 83.0431 52.9253 82.9898 52.776C82.9365 52.616 82.9098 52.408 82.9098 52.152C82.9098 51.896 82.9365 51.6933 82.9898 51.544C83.0431 51.384 83.1231 51.304 83.2298 51.304V53ZM85.5179 53V51.304H89.5499C90.0406 51.304 90.4086 51.1173 90.6539 50.744C90.9099 50.36 91.0379 49.8267 91.0379 49.144C91.0379 48.3867 90.8992 47.8427 90.6219 47.512C90.3446 47.1813 89.9286 47.016 89.3739 47.016C89.2139 47.016 89.0646 47.0267 88.9259 47.048C88.7872 47.0587 88.6806 47.0747 88.6059 47.096V53H86.5259V47.096C86.5259 46.584 86.7872 46.1627 87.3099 45.832C87.8432 45.4907 88.5312 45.32 89.3739 45.32C90.5152 45.32 91.4219 45.656 92.0939 46.328C92.7766 47 93.1179 47.9387 93.1179 49.144C93.1179 49.9547 92.9686 50.648 92.6699 51.224C92.3712 51.8 91.9659 52.2427 91.4539 52.552C90.9526 52.8507 90.3872 53 89.7579 53H85.5179ZM85.5179 53C85.4112 53 85.3312 52.9253 85.2779 52.776C85.2246 52.616 85.1979 52.408 85.1979 52.152C85.1979 51.896 85.2246 51.6933 85.2779 51.544C85.3312 51.384 85.4112 51.304 85.5179 51.304V53Z" fill="#8C503A"/>
<path d="M54.9199 32.368C53.8466 32.368 52.9179 32.2186 52.1339 31.92C51.3592 31.6213 50.7619 31.1826 50.3419 30.604C49.9219 30.0253 49.7119 29.316 49.7119 28.476C49.7119 28.14 49.7446 27.7993 49.8099 27.454C49.8846 27.1086 49.9919 26.7913 50.1319 26.502C50.2719 26.2126 50.4492 25.9793 50.6639 25.802C50.8786 25.6153 51.1306 25.522 51.4199 25.522C51.6532 25.522 51.8446 25.5733 51.9939 25.676C52.1526 25.7786 52.2739 25.8953 52.3579 26.026C52.4419 26.1566 52.4839 26.2733 52.4839 26.376C52.2039 26.5813 51.9752 26.8333 51.7979 27.132C51.6206 27.4213 51.5319 27.8553 51.5319 28.434C51.5319 28.686 51.5646 28.952 51.6299 29.232C51.6952 29.5213 51.8399 29.7873 52.0639 30.03C52.2879 30.282 52.6239 30.4873 53.0719 30.646C53.5292 30.8046 54.1406 30.884 54.9059 30.884C55.5592 30.884 56.1006 30.8233 56.5299 30.702C56.9593 30.59 57.2952 30.436 57.5379 30.24C57.7899 30.0533 57.9672 29.8433 58.0699 29.61C58.1726 29.386 58.2239 29.162 58.2239 28.938L60.0439 28.798C60.0439 29.5726 59.8292 30.226 59.3999 30.758C58.9706 31.29 58.3686 31.6913 57.5939 31.962C56.8286 32.2326 55.9372 32.368 54.9199 32.368ZM58.0279 29.064C57.6079 29.064 57.2812 28.9986 57.0479 28.868C56.8239 28.7373 56.6652 28.574 56.5719 28.378C56.4879 28.1726 56.4599 27.958 56.4879 27.734C56.5159 27.5006 56.5766 27.286 56.6699 27.09C56.7726 27.1926 56.9406 27.3 57.1739 27.412C57.4072 27.524 57.6872 27.58 58.0139 27.58H61.7239V29.064H58.0279ZM61.7239 29.064V27.58C61.8266 27.58 61.8966 27.65 61.9339 27.79C61.9806 27.9206 62.0039 28.098 62.0039 28.322C62.0039 28.546 61.9806 28.728 61.9339 28.868C61.8966 28.9986 61.8266 29.064 61.7239 29.064ZM56.0119 35.098C55.7692 35.098 55.5546 35.0093 55.3679 34.832C55.1906 34.6546 55.1019 34.44 55.1019 34.188C55.1019 33.936 55.1906 33.7213 55.3679 33.544C55.5546 33.3666 55.7692 33.278 56.0119 33.278C56.2733 33.278 56.4879 33.3666 56.6559 33.544C56.8333 33.7213 56.9219 33.936 56.9219 34.188C56.9219 34.44 56.8333 34.6546 56.6559 34.832C56.4879 35.0093 56.2733 35.098 56.0119 35.098ZM53.7439 35.098C53.5012 35.098 53.2866 35.0093 53.0999 34.832C52.9226 34.6546 52.8339 34.44 52.8339 34.188C52.8339 33.936 52.9226 33.7213 53.0999 33.544C53.2866 33.3666 53.5012 33.278 53.7439 33.278C53.9959 33.278 54.2106 33.3666 54.3879 33.544C54.5652 33.7213 54.6539 33.936 54.6539 34.188C54.6539 34.44 54.5652 34.6546 54.3879 34.832C54.2106 35.0093 53.9959 35.098 53.7439 35.098ZM61.5568 29.064V27.58H62.8448C62.9475 27.58 63.0455 27.552 63.1388 27.496C63.2322 27.44 63.3208 27.3606 63.4048 27.258C63.4888 27.146 63.5588 27.006 63.6148 26.838C63.6802 26.6606 63.7268 26.4553 63.7548 26.222C63.7922 25.9793 63.8108 25.7086 63.8108 25.41C63.8108 24.9526 63.7688 24.5886 63.6848 24.318C63.6102 24.0473 63.5028 23.828 63.3628 23.66C63.2228 23.492 63.0548 23.338 62.8588 23.198C62.8588 23.0953 62.8962 22.9786 62.9708 22.848C63.0548 22.7173 63.1762 22.6006 63.3348 22.498C63.5028 22.3953 63.7035 22.344 63.9368 22.344C64.2262 22.344 64.4782 22.428 64.6928 22.596C64.9075 22.764 65.0802 22.9926 65.2108 23.282C65.3508 23.562 65.4535 23.8886 65.5188 24.262C65.5935 24.626 65.6308 25.0133 65.6308 25.424C65.6308 26.5533 65.3882 27.4446 64.9028 28.098C64.4175 28.742 63.7315 29.064 62.8448 29.064H61.5568ZM61.5568 29.064C61.4635 29.064 61.3935 28.9986 61.3468 28.868C61.3002 28.728 61.2768 28.546 61.2768 28.322C61.2768 28.098 61.3002 27.9206 61.3468 27.79C61.3935 27.65 61.4635 27.58 61.5568 27.58V29.064ZM65.0708 21.364C64.8282 21.364 64.6135 21.2753 64.4268 21.098C64.2495 20.9206 64.1608 20.706 64.1608 20.454C64.1608 20.202 64.2495 19.9873 64.4268 19.81C64.6135 19.6326 64.8282 19.544 65.0708 19.544C65.3322 19.544 65.5468 19.6326 65.7148 19.81C65.8922 19.9873 65.9808 20.202 65.9808 20.454C65.9808 20.706 65.8922 20.9206 65.7148 21.098C65.5468 21.2753 65.3322 21.364 65.0708 21.364ZM62.8028 21.364C62.5602 21.364 62.3455 21.2753 62.1588 21.098C61.9815 20.9206 61.8928 20.706 61.8928 20.454C61.8928 20.202 61.9815 19.9873 62.1588 19.81C62.3455 19.6326 62.5602 19.544 62.8028 19.544C63.0548 19.544 63.2695 19.6326 63.4468 19.81C63.6242 19.9873 63.7128 20.202 63.7128 20.454C63.7128 20.706 63.6242 20.9206 63.4468 21.098C63.2695 21.2753 63.0548 21.364 62.8028 21.364ZM72.9901 29.064V27.58H74.4041V29.064H72.9901ZM70.1621 29.064C69.6207 29.064 69.1261 28.9333 68.6781 28.672C68.2301 28.4013 67.8754 28.014 67.6141 27.51C67.3527 27.006 67.2221 26.3993 67.2221 25.69C67.2221 24.6353 67.5161 23.814 68.1041 23.226C68.7014 22.638 69.4994 22.344 70.4981 22.344C71.2354 22.344 71.8327 22.4933 72.2901 22.792C72.7567 23.0813 72.9901 23.45 72.9901 23.898V29.064H71.1701V23.898C71.1047 23.8793 71.0114 23.8653 70.8901 23.856C70.7687 23.8373 70.6381 23.828 70.4981 23.828C70.0127 23.828 69.6487 23.9726 69.4061 24.262C69.1634 24.5513 69.0421 25.0273 69.0421 25.69C69.0421 26.2873 69.1494 26.754 69.3641 27.09C69.5881 27.4166 69.9147 27.58 70.3441 27.58H72.9901V29.064H70.1621ZM71.2821 32.27C71.0487 32.27 70.8527 32.2186 70.6941 32.116C70.5354 32.0133 70.4141 31.892 70.3301 31.752C70.2554 31.6213 70.2181 31.5093 70.2181 31.416C70.4141 31.2666 70.5821 31.0986 70.7221 30.912C70.8621 30.7253 70.9694 30.4826 71.0441 30.184C71.1281 29.8946 71.1701 29.5213 71.1701 29.064V27.58H72.9901V29.064C72.9901 29.4746 72.9527 29.8713 72.8781 30.254C72.8127 30.6366 72.7101 30.9773 72.5701 31.276C72.4394 31.584 72.2667 31.8266 72.0521 32.004C71.8374 32.1813 71.5807 32.27 71.2821 32.27ZM74.4041 29.064V27.58C74.5067 27.58 74.5767 27.65 74.6141 27.79C74.6607 27.9206 74.6841 28.098 74.6841 28.322C74.6841 28.546 74.6607 28.728 74.6141 28.868C74.5767 28.9986 74.5067 29.064 74.4041 29.064ZM84.3645 29.064C83.8418 29.064 83.3705 28.9473 82.9505 28.714C82.5398 28.4806 82.2131 28.1586 81.9705 27.748C81.7371 27.3373 81.6205 26.8753 81.6205 26.362V25.746L83.4405 25.13V26.362C83.4405 26.5486 83.4731 26.74 83.5385 26.936C83.6038 27.1226 83.7065 27.2766 83.8465 27.398C83.9865 27.5193 84.1591 27.58 84.3645 27.58H85.0785V29.064H84.3645ZM74.2425 29.064V27.58H75.5445C76.4871 27.58 77.1358 27.426 77.4905 27.118C77.8545 26.8006 78.0365 26.2826 78.0365 25.564C78.0365 25.1533 77.9851 24.892 77.8825 24.78C77.7891 24.668 77.6398 24.612 77.4345 24.612C77.2291 24.612 77.0751 24.668 76.9725 24.78C76.8791 24.892 76.8325 25.1533 76.8325 25.564C76.8325 26.2826 77.0098 26.8006 77.3645 27.118C77.7285 27.426 78.3818 27.58 79.3245 27.58H80.0385C80.5145 27.58 80.8971 27.3653 81.1865 26.936C81.4758 26.4973 81.6205 25.8626 81.6205 25.032C81.6205 24.3973 81.5131 23.8933 81.2985 23.52C81.0838 23.1466 80.7105 22.8806 80.1785 22.722C79.6558 22.554 78.9231 22.47 77.9805 22.47C77.7751 22.47 77.5838 22.4746 77.4065 22.484C77.2385 22.484 77.1171 22.484 77.0425 22.484C76.6878 22.484 76.4031 22.414 76.1885 22.274C75.9738 22.1246 75.8198 21.938 75.7265 21.714C75.6331 21.49 75.5865 21.266 75.5865 21.042C75.5865 20.8086 75.6191 20.6546 75.6845 20.58C75.7591 20.5053 75.8431 20.468 75.9365 20.468C75.9831 20.6173 76.0998 20.748 76.2865 20.86C76.4731 20.9626 76.7671 21.014 77.1685 21.014C77.2991 21.014 77.4205 21.0093 77.5325 21C77.6445 20.9906 77.8311 20.986 78.0925 20.986C79.9685 20.986 81.3265 21.336 82.1665 22.036C83.0158 22.7266 83.4405 23.7393 83.4405 25.074C83.4405 25.9606 83.2818 26.7026 82.9645 27.3C82.6471 27.888 82.2318 28.3313 81.7185 28.63C81.2051 28.9193 80.6451 29.064 80.0385 29.064H79.3245C78.5311 29.064 77.8078 28.952 77.1545 28.728C76.5011 28.504 75.9785 28.1446 75.5865 27.65C75.2038 27.146 75.0125 26.4926 75.0125 25.69C75.0125 25.2046 75.0918 24.7706 75.2505 24.388C75.4185 24.0053 75.6798 23.702 76.0345 23.478C76.3891 23.2446 76.8558 23.128 77.4345 23.128C78.0131 23.128 78.4798 23.2446 78.8345 23.478C79.1891 23.702 79.4458 24.0053 79.6045 24.388C79.7725 24.7706 79.8565 25.2046 79.8565 25.69C79.8565 26.4926 79.6605 27.146 79.2685 27.65C78.8858 28.1446 78.3678 28.504 77.7145 28.728C77.0611 28.952 76.3378 29.064 75.5445 29.064H74.2425ZM74.2425 29.064C74.1491 29.064 74.0791 28.9986 74.0325 28.868C73.9858 28.728 73.9625 28.546 73.9625 28.322C73.9625 28.098 73.9858 27.9206 74.0325 27.79C74.0791 27.65 74.1491 27.58 74.2425 27.58V29.064ZM85.0785 29.064V27.58C85.1811 27.58 85.2511 27.65 85.2885 27.79C85.3351 27.9206 85.3585 28.098 85.3585 28.322C85.3585 28.546 85.3351 28.728 85.2885 28.868C85.2511 28.9986 85.1811 29.064 85.0785 29.064ZM84.9193 29.064V27.58H88.7273C89.0446 27.58 89.2873 27.482 89.4553 27.286C89.6233 27.09 89.7073 26.8053 89.7073 26.432V23.898C89.6419 23.8793 89.5486 23.8653 89.4273 23.856C89.3059 23.8373 89.1753 23.828 89.0353 23.828C88.5499 23.828 88.1859 23.9726 87.9433 24.262C87.7006 24.5513 87.5793 25.0273 87.5793 25.69C87.5793 26.2873 87.6866 26.74 87.9013 27.048C88.1253 27.356 88.4519 27.5333 88.8813 27.58L88.6993 29.05C88.1579 28.994 87.6633 28.84 87.2153 28.588C86.7766 28.3266 86.4219 27.958 86.1513 27.482C85.8899 26.9966 85.7593 26.3993 85.7593 25.69C85.7593 24.6353 86.0533 23.814 86.6413 23.226C87.2386 22.638 88.0366 22.344 89.0353 22.344C89.7726 22.344 90.3699 22.4933 90.8273 22.792C91.2939 23.0813 91.5273 23.45 91.5273 23.898V26.432C91.5273 26.936 91.4059 27.3886 91.1633 27.79C90.9299 28.182 90.6033 28.4946 90.1833 28.728C89.7633 28.952 89.2779 29.064 88.7273 29.064H84.9193ZM84.9193 29.064C84.8259 29.064 84.7559 28.9986 84.7093 28.868C84.6626 28.728 84.6393 28.546 84.6393 28.322C84.6393 28.098 84.6626 27.9206 84.7093 27.79C84.7559 27.65 84.8259 27.58 84.9193 27.58V29.064ZM90.1693 21.364C89.9266 21.364 89.7119 21.2753 89.5253 21.098C89.3479 20.9206 89.2593 20.706 89.2593 20.454C89.2593 20.202 89.3479 19.9873 89.5253 19.81C89.7119 19.6326 89.9266 19.544 90.1693 19.544C90.4306 19.544 90.6453 19.6326 90.8133 19.81C90.9906 19.9873 91.0793 20.202 91.0793 20.454C91.0793 20.706 90.9906 20.9206 90.8133 21.098C90.6453 21.2753 90.4306 21.364 90.1693 21.364ZM87.9013 21.364C87.6586 21.364 87.4439 21.2753 87.2573 21.098C87.0799 20.9206 86.9913 20.706 86.9913 20.454C86.9913 20.202 87.0799 19.9873 87.2573 19.81C87.4439 19.6326 87.6586 19.544 87.9013 19.544C88.1533 19.544 88.3679 19.6326 88.5453 19.81C88.7226 19.9873 88.8113 20.202 88.8113 20.454C88.8113 20.706 88.7226 20.9206 88.5453 21.098C88.3679 21.2753 88.1533 21.364 87.9013 21.364Z" fill="#8C503A"/>
<path d="M42.2774 38.8234C42.7089 38.7393 43.0056 38.3191 42.9517 37.8709C42.8707 37.4227 42.4662 37.1145 42.0347 37.1705C33.0538 38.7113 23.9381 38.6833 14.9572 37.0865C14.5257 37.0024 14.0942 37.3106 14.0133 37.7868C13.9324 38.2351 14.229 38.6833 14.6875 38.7674C19.3533 39.5798 24.019 40 28.7117 40C33.2426 39.972 37.7735 39.5798 42.2774 38.8234ZM39.9041 17H18.2205C17.9778 17 17.7621 17.1121 17.6002 17.3082C17.4384 17.5043 17.3845 17.7564 17.4115 17.9805L19.7578 32.7722C20.0275 34.4251 21.322 35.6857 22.9402 35.7978C24.936 35.9659 26.9857 36.0219 28.9814 36.0219C31.0311 36.0219 33.0808 35.9379 35.1035 35.7698C36.7217 35.6297 38.0162 34.3971 38.2859 32.7442L38.7444 29.8587H39.7962C40.3356 29.8587 40.875 29.7747 41.4144 29.6346C44.1113 28.8782 45.9992 26.3289 45.9992 23.4153C46.0532 19.9135 43.3023 17.028 39.9041 17ZM36.7217 32.4921C36.5868 33.3886 35.8856 34.0609 35.0226 34.1169C31.085 34.4251 27.0396 34.4251 23.102 34.1169C22.239 34.0609 21.5378 33.3886 21.4029 32.4921L19.1914 18.6809H38.9332L36.7217 32.4921ZM41.0368 28.0378C40.6592 28.1498 40.2547 28.2058 39.8502 28.2058H39.068L40.5783 18.7369C42.7629 19.1011 44.435 21.0621 44.435 23.4434C44.435 25.6005 43.0326 27.4775 41.0368 28.0378Z" fill="#8C503A"/>
<path d="M14.5 0C22.508 0 29 6.38591 29 14.263C29 23.6428 19.5724 28.133 18.3913 29.1781C17.1851 30.2452 16.1886 32.6375 15.7865 33.9938C15.5915 34.6525 15.0431 34.9857 14.5 35C13.9556 34.9844 13.4085 34.6512 13.2135 33.9938C12.8114 32.6375 11.8149 30.2465 10.6087 29.1781C9.42764 28.133 -1.90735e-06 23.6428 -1.90735e-06 14.263C-1.90735e-06 6.38591 6.49204 0 14.5 0ZM14.5 18.1529C16.6842 18.1529 18.4545 16.4115 18.4545 14.263C18.4545 12.1144 16.6842 10.3731 14.5 10.3731C12.3158 10.3731 10.5455 12.1144 10.5455 14.263C10.5455 16.4115 12.3158 18.1529 14.5 18.1529Z" fill="#8C503A"/>
</svg>
